<?xml version="1.0" standalone="no"?>
<!DOCTYPE svg PUBLIC "-//W3C//DTD SVG 20010904//EN"
 "http://www.w3.org/TR/2001/REC-SVG-20010904/DTD/svg10.dtd">
<svg version="1.0" xmlns="http://www.w3.org/2000/svg"
 width="1024.000000pt" height="1024.000000pt" viewBox="0 0 1024.000000 1024.000000"
 preserveAspectRatio="xMidYMid meet">

<g transform="translate(0.000000,1024.000000) scale(0.100000,-0.100000)"
fill="#000000" stroke="none">
<path d="M7838 8226 c-66 -18 -112 -57 -142 -120 -33 -69 -32 -107 2 -176 43
-87 137 -138 228 -123 41 7 122 68 148 112 26 44 27 151 3 197 -21 41 -70 82
-125 105 -50 22 -51 22 -114 5z m144 -42 c38 -20 75 -71 89 -126 33 -123 -83
-244 -215 -223 -82 14 -125 51 -151 131 -43 133 62 254 205 237 25 -3 57 -11
72 -19z"/>
<path d="M7823 8143 c-22 -4 -23 -8 -23 -124 0 -111 1 -119 19 -119 17 0 20 8
23 53 3 48 5 52 30 55 23 3 29 -3 52 -52 19 -40 32 -56 46 -56 20 0 19 2 -5
50 l-26 51 31 30 c36 36 37 50 8 83 -18 21 -34 27 -78 30 -30 2 -65 1 -77 -1z
m121 -39 c39 -38 5 -78 -62 -72 -32 3 -37 7 -40 31 -2 16 -1 35 2 43 7 19 80
18 100 -2z"/>
<path d="M4750 8227 c-3 -3 -68 -8 -145 -11 -78 -3 -159 -8 -180 -11 -22 -3
-116 -14 -210 -26 -626 -75 -1208 -263 -1660 -538 -381 -231 -668 -521 -828
-837 -111 -216 -157 -413 -157 -664 0 -206 18 -298 82 -432 28 -60 54 -108 58
-108 3 0 14 -15 25 -32 10 -18 50 -66 89 -106 159 -165 386 -287 650 -351 223
-53 247 -56 501 -56 208 1 255 4 355 23 172 35 266 60 360 97 115 46 330 134
355 145 65 30 287 112 385 143 258 80 413 74 521 -21 36 -31 88 -116 78 -126
-3 -3 -57 1 -120 10 -255 34 -471 -28 -616 -175 -102 -104 -154 -241 -133
-351 36 -188 180 -294 468 -344 273 -47 637 28 870 181 380 249 619 578 677
933 46 288 -19 474 -202 576 -146 82 -360 76 -444 -12 -13 -14 -71 -118 -129
-232 l-105 -207 -144 -3 c-86 -1 -148 1 -154 7 -7 7 16 62 66 163 100 203 555
1124 720 1461 l132 267 167 0 c93 0 168 -3 168 -6 0 -6 -333 -664 -467 -922
-41 -79 -72 -146 -69 -149 5 -5 166 109 406 287 14 10 56 41 95 69 l70 51 238
0 c182 0 238 -3 235 -12 -4 -10 -401 -293 -630 -449 -43 -29 -78 -56 -78 -60
0 -4 15 -12 33 -20 57 -23 150 -91 218 -159 79 -80 139 -192 165 -306 22 -101
15 -302 -16 -419 -98 -380 -414 -821 -735 -1024 -39 -25 -45 -32 -30 -37 9 -4
101 -4 204 -1 411 14 753 96 1075 259 617 311 1036 873 1148 1538 16 100 16
405 -1 500 -14 83 -37 174 -51 205 -5 11 -19 45 -30 75 -74 194 -240 395 -461
557 -46 34 -95 71 -109 81 -49 37 -249 144 -371 198 -139 63 -293 119 -449
164 -58 16 -119 34 -135 40 -41 13 -336 74 -455 94 -52 9 -214 30 -360 46
-223 26 -318 32 -600 37 -184 3 -337 3 -340 0z m-881 -503 c44 -5 61 -11 61
-21 0 -23 -79 -179 -104 -206 -20 -21 -32 -25 -94 -26 -241 -5 -435 -103 -559
-283 -48 -69 -133 -234 -133 -257 0 -8 72 -11 220 -11 169 0 220 -3 220 -12 0
-18 -102 -241 -115 -250 -5 -4 -110 -8 -231 -8 l-222 0 -16 -34 c-9 -19 -16
-37 -16 -40 0 -4 -20 -50 -45 -103 -25 -52 -45 -98 -45 -100 0 -3 -32 -78 -71
-167 -39 -88 -93 -213 -121 -276 -27 -63 -61 -141 -75 -172 l-26 -58 -46 0
c-25 -1 -91 -1 -146 -2 -86 -1 -100 1 -103 16 -2 9 22 78 54 154 91 218 163
389 206 492 22 52 56 133 75 180 19 47 37 91 40 98 4 9 -23 12 -116 12 -67 0
-121 4 -121 9 0 13 68 198 85 231 l15 29 136 3 136 3 37 96 c164 415 479 658
906 698 124 11 143 12 214 5z m3357 -413 c118 -54 139 -221 37 -298 -46 -35
-133 -43 -187 -18 -106 51 -129 201 -43 282 57 54 123 66 193 34z m-3014 -418
c130 -45 173 -100 171 -214 -2 -74 -60 -261 -129 -416 -8 -17 -14 -34 -14 -37
0 -11 -193 -511 -200 -519 -11 -12 -573 -8 -655 4 -135 21 -254 100 -298 198
-45 102 -30 255 38 376 56 101 126 163 220 195 53 18 84 20 364 20 287 0 308
1 338 20 39 24 52 63 32 99 l-15 26 -272 3 c-230 2 -272 5 -272 17 0 14 19 60
81 194 l30 63 262 -4 c228 -5 269 -8 319 -25z m1242 19 c2 -4 -23 -64 -57
-132 l-62 -125 -160 -6 c-161 -7 -209 -15 -277 -50 -74 -38 -92 -73 -197 -384
-137 -403 -173 -510 -176 -513 -5 -6 -316 -4 -322 2 -3 3 8 45 25 93 17 49 50
140 72 203 23 63 70 196 105 295 113 322 124 348 160 401 74 107 195 192 305
213 56 11 577 14 584 3z m1718 -3 c42 -9 63 -21 101 -59 41 -41 47 -53 48 -91
3 -110 4 -104 -136 -459 -42 -107 -101 -258 -131 -335 -96 -247 -105 -265
-125 -266 -11 0 -71 0 -134 0 -63 0 -120 0 -126 0 -13 1 -6 25 37 117 19 39
34 75 34 78 0 4 16 41 35 84 19 42 64 147 101 232 154 360 161 383 123 419
-20 18 -35 21 -115 21 -51 0 -95 4 -99 10 -5 8 94 219 117 248 13 16 196 16
270 1z"/>
<path d="M3435 6256 c-72 -32 -115 -129 -94 -213 23 -88 73 -104 320 -101
l182 3 62 155 c35 85 61 158 58 163 -2 4 -115 7 -251 7 -183 -1 -255 -4 -277
-14z"/>
<path d="M5223 3585 c-76 -33 -81 -103 -10 -135 51 -23 107 -25 172 -5 27 8
50 13 50 12 1 -1 16 -27 33 -57 17 -31 42 -66 56 -79 39 -37 34 -54 -11 -44
-52 11 -185 7 -263 -7 -141 -25 -250 -104 -250 -182 0 -85 49 -124 147 -116
79 8 155 42 198 89 40 44 50 75 42 126 l-6 36 55 -6 c31 -3 58 -8 61 -11 3 -3
-18 -44 -47 -92 -58 -97 -72 -151 -45 -177 9 -9 28 -17 43 -17 31 0 103 33
126 59 15 16 14 19 -9 41 l-25 23 -25 -23 c-63 -59 -33 22 63 172 31 48 63 88
70 88 22 0 62 32 78 61 13 27 13 29 -12 45 -25 17 -26 17 -51 -15 -21 -27 -30
-31 -52 -26 -38 10 -60 33 -96 105 -24 47 -30 71 -24 87 13 36 0 63 -31 63
-16 0 -30 -5 -32 -12 -3 -9 -12 -9 -38 0 -44 16 -128 14 -167 -3z m136 -56
c41 -14 29 -27 -29 -29 -71 -4 -90 -1 -90 14 0 27 63 34 119 15z m-51 -365 c4
-41 -40 -86 -105 -108 -59 -20 -97 -20 -117 0 -19 18 -19 22 -3 51 29 52 111
94 177 90 42 -2 45 -4 48 -33z"/>
<path d="M6262 3570 c-199 -52 -359 -219 -381 -395 -14 -117 6 -180 73 -229
43 -33 146 -29 208 7 26 15 56 41 68 58 27 37 36 98 20 129 -11 21 -10 26 15
43 27 20 55 72 55 102 0 29 -46 65 -83 65 -38 0 -113 -24 -141 -45 -17 -13
-17 -18 -6 -45 15 -35 16 -36 55 -10 30 20 95 28 95 12 0 -18 -59 -64 -104
-81 -26 -10 -47 -21 -47 -24 1 -4 1 -17 1 -28 0 -19 4 -20 34 -15 45 9 63 -12
44 -50 -18 -38 -58 -65 -105 -71 -32 -4 -45 -1 -69 20 -28 25 -29 28 -28 111
1 74 5 93 32 149 39 79 130 168 209 204 76 36 230 45 283 18 32 -17 34 -17 47
1 24 33 15 51 -36 73 -62 26 -140 27 -239 1z"/>
<path d="M3095 3352 c-22 -11 -49 -29 -59 -41 -20 -22 -20 -22 2 -44 19 -18
25 -20 40 -9 29 21 62 35 67 30 3 -3 -10 -38 -30 -79 -19 -40 -35 -81 -35 -90
0 -30 49 -78 85 -85 31 -6 52 -1 108 21 16 7 16 3 -4 -38 -21 -43 -21 -47 -5
-71 26 -41 94 -31 149 22 31 30 31 30 12 56 -15 19 -15 19 -37 -1 -71 -63 -63
-40 43 128 125 197 118 179 66 179 -42 0 -44 -1 -83 -67 -49 -82 -128 -143
-196 -150 -25 -3 -48 -1 -51 3 -3 5 10 42 29 83 19 41 34 86 34 101 0 57 -68
83 -135 52z"/>
<path d="M7035 3363 c-16 -2 -47 -8 -69 -14 -36 -10 -38 -12 -32 -42 3 -17 8
-32 10 -34 2 -2 35 2 74 9 112 19 157 -7 111 -65 -19 -25 -86 -67 -107 -67 -5
0 -9 14 -10 31 0 18 -11 42 -24 56 -20 22 -30 24 -74 21 -31 -3 -63 -13 -81
-26 -39 -27 -47 -28 -33 -1 7 11 9 23 7 25 -12 13 -149 25 -207 19 -99 -11
-167 -40 -226 -100 -55 -55 -70 -93 -60 -150 9 -47 63 -92 121 -101 54 -8 68
2 63 42 -3 25 -8 30 -42 35 -38 6 -66 30 -66 55 0 74 133 144 270 144 76 0
103 -9 94 -29 -18 -44 -16 -61 14 -91 22 -22 40 -30 65 -30 44 0 47 -4 34 -46
-10 -32 -8 -37 15 -61 32 -31 96 -40 167 -23 49 12 51 13 51 47 0 32 -2 35
-22 29 -56 -15 -108 -18 -123 -6 -12 10 -13 16 -1 39 11 20 30 32 73 45 32 10
70 25 86 32 15 8 27 10 27 5 0 -16 58 -33 89 -26 37 8 38 2 6 -50 -32 -52 -31
-79 2 -104 20 -17 34 -20 62 -15 41 7 87 29 114 52 17 15 16 17 -9 43 l-27 28
-31 -26 c-16 -14 -32 -21 -34 -15 -1 5 38 77 88 160 49 82 90 155 90 161 0 6
-18 11 -42 11 -43 0 -43 -1 -78 -65 -28 -52 -44 -70 -76 -85 -22 -11 -51 -20
-63 -20 -20 0 -22 4 -16 23 3 12 9 43 12 69 11 94 -48 129 -192 111z m-105
-198 c0 -29 -25 -45 -70 -45 -42 0 -37 26 10 51 46 25 60 24 60 -6z"/>
<path d="M2066 3330 c-83 -32 -99 -59 -72 -121 5 -12 -1 -20 -24 -29 -65 -27
-120 -112 -120 -187 0 -59 72 -147 148 -179 46 -20 169 -28 242 -17 54 8 55 9
55 42 l0 35 -120 0 c-130 1 -163 11 -211 63 -61 66 -6 164 111 198 98 29 209
7 203 -40 -3 -17 -11 -20 -57 -21 -40 -1 -57 -6 -68 -19 -21 -30 -15 -43 26
-56 53 -16 104 -4 146 33 28 24 35 37 35 67 0 77 -67 120 -187 121 -39 0 -78
3 -87 6 -16 6 -23 34 -8 34 4 0 35 4 70 9 71 11 178 -1 222 -24 27 -14 30 -14
44 7 28 40 20 55 -39 77 -76 28 -237 29 -309 1z"/>
<path d="M2760 3344 c-78 -13 -141 -28 -145 -34 -5 -8 14 -70 20 -70 2 0 30 7
62 15 64 17 159 20 167 6 16 -25 -71 -91 -151 -115 -21 -7 -23 -4 -23 24 0 66
-118 75 -209 14 -76 -50 -74 -125 2 -139 32 -6 34 -9 33 -47 -1 -33 4 -44 27
-61 54 -42 173 -19 262 49 l36 27 -24 24 -24 24 -65 -35 c-68 -38 -138 -49
-138 -23 0 25 36 47 101 64 217 54 343 205 216 258 -37 15 -111 25 -147 19z
m-150 -191 c0 -19 -37 -43 -67 -43 -44 0 -42 14 5 33 40 17 62 21 62 10z"/>
<path d="M3705 3331 c-57 -25 -138 -120 -159 -183 -28 -87 -17 -135 36 -168
88 -54 209 7 304 151 73 110 153 169 170 124 4 -9 -20 -59 -54 -118 -71 -120
-81 -143 -72 -177 12 -50 89 -57 148 -13 42 31 49 49 28 72 -18 20 -18 20 -52
-6 -19 -14 -37 -23 -41 -20 -3 4 24 56 61 115 75 124 83 162 42 209 -19 22
-31 27 -64 26 -81 -3 -157 -64 -249 -198 -36 -51 -60 -75 -95 -93 -54 -28 -93
-24 -103 9 -10 29 37 119 91 175 37 37 50 45 71 41 29 -5 83 10 83 24 0 5 -9
18 -20 29 -25 25 -72 26 -125 1z"/>
<path d="M4562 3321 c-100 -35 -182 -121 -190 -199 -4 -41 -1 -52 18 -70 28
-26 64 -32 120 -22 55 10 86 23 124 49 29 19 30 19 53 1 18 -14 30 -16 61 -9
20 5 40 9 44 9 4 0 -5 -23 -19 -51 -25 -48 -26 -53 -12 -78 13 -23 21 -26 62
-24 51 1 130 39 134 63 2 8 -4 23 -12 34 -13 18 -15 18 -41 -3 -33 -26 -54
-27 -54 -3 0 20 65 128 126 212 23 30 46 65 53 78 11 21 10 22 -31 22 -40 0
-45 -3 -72 -46 -45 -71 -75 -103 -117 -124 -56 -29 -62 -26 -56 20 l5 40 -37
0 c-30 0 -40 -5 -51 -25 -26 -49 -149 -112 -198 -103 -10 2 -18 14 -20 29 -6
52 90 131 176 145 40 6 42 8 42 40 0 30 -3 34 -27 34 -16 -1 -52 -9 -81 -19z"/>
<path d="M7681 3315 c-161 -45 -233 -167 -151 -254 47 -51 145 -59 244 -22 32
13 46 7 28 -11 -15 -15 -15 -69 1 -89 7 -8 20 -18 29 -22 22 -8 106 17 138 42
22 18 23 21 10 45 -16 31 -24 32 -57 6 -28 -21 -43 -25 -43 -11 0 5 41 75 91
156 50 81 93 153 96 161 4 11 -5 14 -38 14 -42 0 -45 -2 -71 -49 -36 -63 -96
-116 -172 -152 -81 -38 -147 -47 -181 -25 -82 54 44 150 197 151 61 0 81 4 97
20 20 17 20 20 6 34 -22 22 -154 25 -224 6z"/>
<path d="M8095 3031 c-42 -18 -68 -64 -53 -93 18 -36 103 -7 114 39 12 46 -18
72 -61 54z"/>
<path d="M8285 3031 c-34 -14 -57 -47 -53 -78 3 -26 6 -28 42 -27 44 2 76 30
76 68 0 39 -25 53 -65 37z"/>
<path d="M8464 3030 c-48 -19 -72 -93 -35 -105 47 -15 104 23 104 71 0 39 -26
52 -69 34z"/>
</g>
</svg>
